<svg id="Layer_1" data-name="Layer 1" xmlns="http://www.w3.org/2000/svg" viewBox="0 0 1600 900"><defs><style>.cls-1{fill:#f48b00;}.cls-2{font-size:107.65px;}.cls-2,.cls-8{fill:#ffe94a;}.cls-2,.cls-5{font-family:Quicksand-Bold, Quicksand;font-weight:700;}.cls-3{letter-spacing:-0.02em;}.cls-4{letter-spacing:0em;}.cls-5{font-size:180.39px;fill:#fff;}.cls-6{letter-spacing:0em;}.cls-7{letter-spacing:0em;}.cls-9{fill:#ffbb4d;}.cls-10{fill:#9ee2f9;}.cls-11{fill:#08607d;}.cls-12{fill:#04303e;}.cls-13{fill:#0d91bd;}.cls-14{fill:#90e36a;}.cls-15{fill:#f96225;}.cls-16{fill:#0caa63;}.cls-17{fill:#5ecef4;}</style></defs><title>logo</title><rect class="cls-1" width="1600" height="900"/><text class="cls-2" transform="translate(640.88 428.4)">STEP IN<tspan class="cls-3" x="397" y="0">T</tspan><tspan class="cls-4" x="462.24" y="0">O</tspan></text><text class="cls-5" transform="translate(629.94 594.33)">RE<tspan class="cls-6" x="227.11" y="0">A</tspan><tspan class="cls-7" x="341.48" y="0">CTIVE</tspan></text><g id="_Group_" data-name="&lt;Group&gt;"><g id="_Group_2" data-name="&lt;Group&gt;"><path id="_Path_" data-name="&lt;Path&gt;" class="cls-8" d="M1221.15,395.65h15.53c-.12-.71-.25-1.45-.4-2.2l-.21-1.09c-.09-.44-.19-.88-.27-1.21a54.64,54.64,0,0,0-22.46-33.56,57,57,0,0,0,39.38,87.35Z"/><path id="_Path_2" data-name="&lt;Path&gt;" class="cls-8" d="M1265.54,331.68a57,57,0,0,0-29.2,5.55,66.37,66.37,0,0,1,55.56,57.15l.16,1.27h14.16l-30.85,48.16a57,57,0,0,0-9.83-112.13Z"/></g></g><path id="_Path_3" data-name="&lt;Path&gt;" class="cls-9" d="M1286.66,401.4a60.56,60.56,0,0,0-82.47-55.12,60.55,60.55,0,0,1,38.62,55.12h-11.16l32,50,32-50Z"/><path class="cls-10" d="M375,692.77C299.69,701,228.51,595.69,212.87,453s31.07-260.93,106.32-269.18,146.45,97.08,162.08,239.78S450.2,684.53,375,692.77ZM322.46,213.64c-25.53,2.79-48.94,28.19-64.22,69.68C241.45,328.9,235.93,388,242.69,449.73S267.64,568,293.9,608.82c23.9,37.2,52.25,56.93,77.78,54.13s48.94-28.19,64.22-69.68c16.79-45.58,22.31-104.68,15.55-166.41s-24.95-118.23-51.21-159.1C376.34,230.56,348,210.84,322.46,213.64Z"/><path class="cls-11" d="M247.67,624.36c-48.88,5.35-86.56-6.75-107-34.69-22.49-30.68-20.53-75.39,5.52-125.91,24.34-47.22,67.35-94.92,121.1-134.34s112.18-66.08,164.53-75.11c56-9.65,99.25,1.92,121.75,32.6s20.53,75.4-5.52,125.91C523.66,460,480.65,507.75,426.9,547.16s-112.18,66.09-164.53,75.11Q254.86,623.58,247.67,624.36ZM449.48,282.09q-6.15.68-12.61,1.79C389,292.13,335.06,316.9,285,353.62S195.06,434.34,172.8,477.51c-20.26,39.29-23.17,73.71-8,94.42s48.89,28.29,92.45,20.78c47.87-8.25,101.81-33,151.89-69.74s89.92-80.72,112.18-123.9c20.26-39.29,23.17-73.7,8-94.42C515.64,286,486.91,278,449.48,282.09Z"/><path class="cls-12" d="M553.52,286.91c-22.5-30.68-65.74-42.25-121.75-32.6-32.19,5.55-66.68,17.79-101,35.54L334.33,322c34.91-19.33,70.11-32.51,102.54-38.09q6.45-1.12,12.61-1.79c37.43-4.1,66.15,3.89,79.84,22.56,15.19,20.72,12.28,55.13-8,94.42-22.26,43.18-62.1,87.18-112.18,123.9a464.69,464.69,0,0,1-49.35,31.65l3.52,32.12a485,485,0,0,0,63.57-39.58C480.65,507.75,523.66,460,548,412.82,574.05,362.31,576,317.59,553.52,286.91Z"/><path class="cls-13" d="M484.4,598.42q-7.2.8-14.81,1.15c-53.06,2.52-115.88-10.87-176.89-37.71S179.38,497.75,145.39,456.93C109,413.25,97.43,370,112.75,335.2s55-55.49,111.79-58.19c53.07-2.52,115.89,10.87,176.9,37.71s113.32,64.11,147.31,104.94c36.37,43.68,48,86.91,32.64,121.73C567.44,573.1,533.26,593.07,484.4,598.42ZM213.27,308c-37.44,4.1-63.74,18.12-73.06,39.31-10.35,23.51-.06,56.48,28.23,90.45,31.08,37.33,79.5,71.66,136.34,96.67s114.87,37.51,163.39,35.2c44.15-2.09,75.42-16.78,85.76-40.29s.05-56.48-28.23-90.46c-31.08-37.33-79.51-71.66-136.34-96.67S274.49,304.67,226,307Q219.43,307.29,213.27,308Z"/><path class="cls-11" d="M548.75,419.66c-34-40.83-86.31-78.1-147.31-104.94a485.78,485.78,0,0,0-70.63-24.87L334.33,322a465.13,465.13,0,0,1,55,20.21c56.83,25,105.26,59.34,136.34,96.67,28.28,34,38.58,66.94,28.23,90.46s-41.6,38.2-85.76,40.29c-32.87,1.57-70.09-3.67-108.36-15l3.52,32.12c37.31,9.91,73.64,14.38,106.26,12.83q7.62-.36,14.81-1.15c48.86-5.35,83-25.32,97-57C596.71,506.57,585.12,463.34,548.75,419.66Z"/><path class="cls-14" d="M354.15,502.91a65,65,0,1,1,57.53-71.7A65.07,65.07,0,0,1,354.15,502.91Z"/><path class="cls-8" d="M573,581.54a47,47,0,1,1,41.61-51.84A47.06,47.06,0,0,1,573,581.54Z"/><path class="cls-15" d="M546.88,343a47,47,0,1,1,41.6-51.84A47.06,47.06,0,0,1,546.88,343Z"/><path class="cls-9" d="M315.3,699.3a47,47,0,1,1,41.61-51.84A47,47,0,0,1,315.3,699.3Z"/><path class="cls-16" d="M340,373.68l14.16,129.23A65,65,0,0,0,340,373.68Z"/><path class="cls-17" d="M400.24,267.76c26.26,40.87,44.44,97.37,51.21,159.1s1.24,120.82-15.55,166.41c-15.28,41.49-38.69,66.88-64.22,69.68L375,692.77c75.25-8.24,122-126.48,106.32-269.18s-86.83-248-162.08-239.78l3.27,29.83C348,210.84,376.34,230.56,400.24,267.76Z"/></svg>